# xmcd
#
# Track frame offsets:
# 150
# 13674
# 30759
# 40690
# 54475
# 74079
# 90127
# 103872
# 124298
# 140751
# 156278
# 170163
#
# Disc length: 2503 seconds
#
#
# Revision: 0
# Processed by: cddbd v1.5.1PL0 Copyright (c) Steve Scherf et al.
# Submitted via: FreeRIP 2.931 
#
DISCID=a009c50c
DTITLE=Tracy Byrd - Greatest Hits
DYEAR=2005
DGENRE=Country
TTITLE0=The Truth About Men - Featuring Andy Griggs, Montgomery Gentry And Blake Shelton
TTITLE1=Just Let Me Be In Love
TTITLE2=Drinkin' Bone
TTITLE3=Watermelon Crawl
TTITLE4=Keeper Of The Stars
TTITLE5=A Good Way To Get On My Bad Side - Featuring Mark Chesnutt
TTITLE6=Ten Rounds With Jose Cuervo
TTITLE7=Put Your Hand In Mine
TTITLE8=I'm From The Country
TTITLE9=Tiny Town
TTITLE10=Johnny Cash
TTITLE11=Revenge Of A Middle-Aged Woman
EXTD=
EXTT0=
EXTT1=
EXTT2=
EXTT3=
EXTT4=
EXTT5=
EXTT6=
EXTT7=
EXTT8=
EXTT9=
EXTT10=
EXTT11=
PLAYORDER=
